<svg id="Layer_1" data-name="Layer 1" xmlns="http://www.w3.org/2000/svg" viewBox="0 0 1647 540"><defs><style>.cls-1{fill:#00efef;}.cls-2{fill:#efef00;}.cls-3{fill:#00ef00;}.cls-4{fill:#5757f0;}.cls-5{fill:#ef00ef;}.cls-6{fill:#f20000;}</style></defs><title>Untitled-4 ಲಾಾ</title><path class="cls-1" d="M242.72,202.34c-.38-1.41,5.91-7.06-1.78-8.29-6.76-1.08-5.11,5.62-6.32,9.46-1,3.28-1.06,8-6.42,6.67-5.11-1.27-1.75-5.15-1.68-7.89,0-2,1.5-5.32.86-5.73-9.43-5.95-9.43-9.57,2.07-12.14,1.21-.27,4.09-7-2.5-7.57-3.19-.29-4.13-1.74-3.9-4.61.16-1.84,1-3.23,2.89-3,9.52,1.19,8.68-6,9.58-11.73.59-3.75,2.32-6.07,6.43-5.24,4.61.93,2,4.25,2.06,6.72.09,3.38-5,8.19,1.4,9.81,6.77,1.72,6.05-4.39,7-8.53.84-3.65.43-9.32,6.49-7.86,5.88,1.42,1.31,5.83,1.37,8.9,0,.79-.76,1.94-.45,2.31,6.07,7,7,12.86-3.05,17.28-1.26.55-1.6,4.72,2.25,5,3,.24,5.7.37,5.22,4.61-.4,3.6-3.07,3.12-5.33,3.17-8.37.18-6.05,7.08-7.22,11.61-1,3.75-2.74,5.72-6.73,5S243.13,206.6,242.72,202.34Z"/><path class="cls-1" d="M133.77,296.71c.73-4.78,4.49-9.65-4.05-12.17-3-.9-1.8-6.44,3.6-6.23,3.73.14,4.81-1.79,5.16-5.05s-1.21-4.36-4.07-4.31c-2.56,0-3.52-1.29-3.57-3.67s.68-4.2,3.26-3.87c7.65,1,8.39-4.13,9-9.65.4-3.56.48-7.95,5.79-7.33,6.54.77,2.24,5.28,2.52,8.26s-4.55,7.31,2.1,8.48c5.12.89,5.89-2.8,6.43-6.65.33-2.39.92-4.74,1.48-7.09.74-3.12,3.13-3.32,5.66-2.94,3,.45,2.31,2.76,2.1,4.65-.58,5.16-5.66,11.35,4.45,13.67,2,.45,1.83,6.17-3.27,6-4.06-.12-5.72,1.68-6.26,5.52-.71,5,3.14,3.46,5.47,4,2.71.65,2.52,2.71,2.4,4.68a2.66,2.66,0,0,1-3.17,2.72c-8.5-1-8.57,5.12-9.26,10.84-.41,3.42-1.52,6.48-5.9,5.93-5.73-.72-2.46-4.64-2.49-7.36,0-3.11,4.28-7.45-1.54-8.94s-6.39,3.14-6.86,7.38c-.18,1.6-.75,3.14-1,4.72-.65,3.42-2.66,4.84-6,4C131.91,301.51,134,298.64,133.77,296.71Z"/><path class="cls-1" d="M58.66,388.72c-.16-3.5,4.9-8.55-1.1-10.14-7.55-2-6.14,5.22-7.36,9.47-1,3.35-1.23,8-6.53,6.46-4.7-1.39-1.74-5.22-1.5-8,.32-3.6,3.36-7.26-3.57-8.93-3.89-.94-4.6-5.84,1.2-7,10.1-2,10.27-5.25,1.31-9.48-2.5-1.18-2.43-2.76-2.4-4.7s1.2-3.06,3-2.82c8.59,1.14,8.62-5,9.26-10.67.44-4,1.85-7.56,6.72-6.17s1.37,5.19,1.57,8c.22,3-4.6,7.35,1.88,8.6,6,1.16,6-3.6,6.72-7.63a41.89,41.89,0,0,1,1.78-7c.85-2.43,3-2.25,5.06-2,3,.32,2.51,2.55,2.3,4.5-.56,5.11-5.67,11.23,4.29,13.7,2.1.52,2.1,6.14-3,6.15-3.93,0-5.78,1.42-6.43,5.36-.84,5.08,3,3.31,5.26,4.27,4.13,1.79,3.29,6.79.8,6.71C67.42,377,68.09,384.48,66.86,391c-.69,3.66-3.43,4.26-6.44,3.6C56.67,393.78,58.74,390.84,58.66,388.72Z"/><path class="cls-2" d="M549.4,203c.22-3.77,1.06-7.16.35-7.52-10.47-5.36-9.61-7.85,1.59-10.33,2.58-.57,4.69-7.1-2.15-8.25-2.51-.42-3.45-1.48-3.5-3.84s.69-4.2,3.27-3.87c7.76,1,8.27-4.39,9-9.75.47-3.62.51-7.87,5.85-7.24,6.5.75,2.34,5.3,2.66,8.29s-4.74,7.29,2,8.46c5.21.9,5.71-3.11,6.34-6.81.4-2.38.83-4.77,1.46-7.1.82-3.08,3.32-3.16,5.81-2.75,2.9.48,2.19,2.8,2.08,4.71-.32,5-5.83,11.08,4.41,13.81,2.79.75.6,6.32-4.51,6.06-3.85-.21-4.51,2.48-4.93,5.45-.54,3.76,2.19,3.62,4.51,3.76,2.58.17,3.32,1.59,3.32,3.92s-1.07,3.92-3.53,3.68c-7.66-.72-8.27,4.54-8.81,10-.37,3.89-1.38,7.52-6.48,6.55-5.51-1-2-5-2.08-7.69-.07-3.06,4.06-7.41-2.12-8.51-5-.9-5.74,3.2-6.18,7a6.94,6.94,0,0,1-.17,1.2c-1,3.62-.51,9.26-6.54,7.86C545.42,208.84,549.58,204.29,549.4,203Z"/><path class="cls-2" d="M1442,482.92c-1-5.7,4.69-10.76-2.12-12.14s-5.71,5-6.69,9c-.83,3.4-1,8.13-6.2,7-5.76-1.28-1.88-5.73-1.94-8.79,0-1.58,1.24-4.31.79-4.58-12.43-7.21-4.95-9.71,2.55-13.29,1.51-.72,2.28-6.5-3.18-6.66-3.37-.1-3.89-2.07-3.68-4.79.15-1.89,1.11-3.13,3-2.89,8.57,1.09,8.63-5.12,9.25-10.74.46-4.16,1.91-7.43,6.74-6.13s1.53,5.17,1.77,7.95c.25,2.95-4.79,7.32,1.72,8.61,6,1.2,5.93-3.8,6.68-7.73a44,44,0,0,1,1.77-7c.89-2.38,3.16-2.11,5.15-1.9,3,.31,2.44,2.59,2.33,4.53-.29,5-5.82,10.94,4.22,13.84,3,.85,1.13,6.44-4.13,6.21-3.78-.18-4.63,2.19-5.15,5.26-.62,3.73,1.84,3.85,4.29,4s3.59,1.21,3.54,3.7c0,2.27-.66,4.15-3.31,3.89-8.57-.82-8.47,5.41-9.16,11-.44,3.65-1.88,6.08-6.14,5.67C1439.08,486.47,1442,482.84,1442,482.92Z"/><path class="cls-2" d="M473.42,296.65c-.39-3.48,5-8.61-1.08-10.13-7.51-1.88-6.06,5.39-7.27,9.65-.85,3-.95,7-5.6,6.31-6.4-.92-2.75-5.5-2.43-8.39.44-3.93,2.62-7.35-4-8.71-3.11-.64-3.22-4.84.73-7,7.61-4.15,7.5-4.11,1.56-9.66-2.66-2.49-3.18-7,.76-7,9.25.17,9.14-5.85,9.82-11.84.43-3.78,2-6.23,6.19-5.5,5.53,1,2.13,4.89,2.31,7.63.19,3.06-4.52,7.29,1.18,9s6.27-3,7.12-7.17c.79-3.93-.37-10.56,6.41-9.2,6.39,1.3.42,6.91,1.76,9.69,3.75,7.81,6.13,14.54-3.75,19.74-1.29.68-.42,3.85,2.39,4,3,.21,5.72.39,5.2,4.62-.54,4.44-4,2.88-6.47,3.34-6.92,1.29-5.06,7.28-6,11.58-.89,4-3,5.53-6.83,4.8S473.56,298.75,473.42,296.65Z"/><path class="cls-2" d="M520.8,250.66c1,3.49-5.93,9.09,1.93,10.35,6.83,1.09,5.23-5.56,6.27-9.44.91-3.41.82-8.07,6.1-7.09,6.32,1.16,2.16,5.66,1.94,8.64-.27,3.69-3,6.9,3.76,8.81,4.64,1.3,4,6.35-2.06,7-3.29.35-5,1.31-5.68,4.78-.86,4.48,2.17,3.81,4.78,4.79,5,1.88,4.52,6.78.25,6.93-9.09.32-9.14,6-9.84,12.08-.46,4-2.78,5.84-6.64,4.92-4.35-1-1.9-4.38-1.9-6.85,0-3.16,4.28-7.66-1.15-9.12-6.58-1.78-6.26,4.13-7.22,8.39-.74,3.26-.29,8.34-5.66,7.55-7.16-1-2.33-6.11-2.32-9.39,0-2.92,2-5.21-2.83-7.38-5.57-2.51-4.92-5,1.65-7.23,2.43-.84,4.44-1,4.89-4,.53-3.54-.77-4.63-4.26-5.54-5.11-1.33-4.6-6.89-.79-6.92,10.1-.1,9.18-6.9,10.15-13,.54-3.44,2.51-4.81,5.87-4.54C523,244.74,520.42,248.35,520.8,250.66Z"/><path class="cls-1" d="M686.94,296.2c1.37-4.95,3.78-9.92-4.44-11.71-1.79-.39-1.81-4.45,1.87-6.2,8.27-3.94,8.11-4.12,1.64-9.57-2.93-2.47-3.24-7,.4-6.91,9.09.2,9.33-5.49,10-11.62.4-3.56,1.72-6.44,6-5.79,5.62.85,2.28,4.73,2.36,7.48.1,3.26-4.9,8.17,2.27,9.24,6.13.92,5.33-4.43,6.25-8.16s.14-9.5,6.07-8.38c6.86,1.29,1.56,6.27,1.67,9.61a6,6,0,0,1-.44,2.37c-2.65,6.83,9.25,2.64,7.1,9.62-1.67,5.45-9.21-.06-10,6.16-.37,2.82-1.62,5.76,3,5.88,2.64.07,4.62.58,4.56,4s-2.37,3.79-4.84,3.67c-7.42-.36-6.76,5.28-7.52,9.9-.62,3.7-1.24,7.68-6.42,6.7-5.44-1-2-4.9-2.05-7.62,0-3.08,4.15-7.49-2-8.66-5.91-1.14-5.73,3.82-6.66,7.77-.82,3.54,0,8.82-6.12,8.54C684.71,302.28,687.19,298.59,686.94,296.2Z"/><path class="cls-2" d="M872.05,479.57c.23-3.71,1.08-7.1.38-7.46-10.36-5.3-9.76-7.84,1.56-10.33,2.59-.57,4.72-7.08-2.1-8.28-2.47-.43-3.49-1.43-3.53-3.81s.63-4.23,3.24-3.9c7.73,1,8.31-4.33,9-9.72.46-3.6.43-7.88,5.81-7.28,6.49.71,2.42,5.25,2.72,8.25s-4.77,7.37,1.94,8.47c6.1,1,5.64-4.11,6.55-7.92.86-3.6-.21-9.42,5.83-8.67,7.28.9,2.12,6,2.21,9.34a2.25,2.25,0,0,1-.28,1.17c-4.55,7.75,8.08,4.48,6.78,10.82-1.26,6.13-10.4.14-10.18,7.43,0,.8-.5,2.19-.27,2.31,16.08,8.17,2.27,9.42-2.7,13.43-1.7,1.37-1.46,5.27-1.88,8-.56,3.72-2.12,6.05-6.31,5.46-4.82-.68-2.3-4.09-2.45-6.53-.21-3.34,5.18-8.27-1.77-9.67-5.88-1.18-5.54,4.21-6.4,8.07-.82,3.67-.45,9.27-6.48,7.92C868.1,485.46,872.24,480.9,872.05,479.57Z"/><path class="cls-2" d="M290.39,434.86a43.76,43.76,0,0,0-1.2,4.7c-.37,2.56-2.18,5.78,2.79,6.09,3.53.22,5.23-1.43,5.82-4.66.5-2.78.92-5.58,1.48-8.34.71-3.53,3.17-4.6,6.31-3.72,3.43,1,1.83,3.8,1.73,6-.18,4.27-5.83,10,4,11.52,2.26.34,2.87,4.95-1.53,7-8.37,3.86-8.21,4-1.44,9.51,3,2.44,3.28,6.84-.46,6.89-8.84.12-9.5,5.51-10.07,11.82-.35,3.86-2.35,5.95-6.42,5.24-4.74-.83-2.05-4.24-2.22-6.67-.22-3.31,5.19-8.33-2-9.52-5.92-1-5.37,4.49-6.24,8.29s-.63,9.28-6.64,7.7c-5.4-1.42-1.54-5.9-1.52-9,0-2.23,2.19-5.25-.36-6.51-9.69-4.81-8.33-6.63,1.33-9.06,4.26-1.06,5.48-6.3-.12-8.32-3.23-1.16-5-1.91-4.4-5.45s3.56-2.4,5.73-2.65c8-.91,5.39-7.69,6.63-12.19.89-3.22,2.28-5,5.76-4.77C292.09,429,290.53,432.24,290.39,434.86Z"/><path class="cls-2" d="M43.06,197.83c-.18-.62-.19-2.88-1.07-3.29-9.73-4.54-8.79-6.47,1.2-9.09,3.81-1,6.2-6.72-1.14-8.52-2.45-.6-3.35-1.61-3.42-3.93s.83-4.11,3.36-3.79c7.81,1,8.19-4.53,8.88-9.83.48-3.67.64-7.85,5.93-7.16,6.48.85,2.21,5.38,2.55,8.37s-4.73,7.33,2.12,8.39c5.26.82,5.64-3.26,6.25-6.92.33-2,.65-4,1.06-5.95.73-3.51,3.12-4.63,6.29-3.76,3.47.94,1.83,3.77,1.79,6-.08,4.22-6.13,10.1,3.94,11.53,2.24.31,2.92,4.94-1.47,7-8.41,3.92-8.38,4.23-1.43,9.39a4.35,4.35,0,0,1,1.95,3.89c.05,2.48-1.23,3.81-3.62,3.59-7.75-.7-8.15,4.73-8.7,10.13-.41,4-1.57,7.49-6.59,6.42-5.41-1.15-1.91-5.07-1.94-7.78,0-3.09,3.91-7.45-2.27-8.42-5.1-.8-5.6,3.4-6.08,7.13-.16,1.2-.36,2.4-.62,3.58-.73,3.35-1.83,6.45-6.24,5.49s-2.07-4.39-2-6.8C41.75,201.89,42.44,200.32,43.06,197.83Z"/><path class="cls-2" d="M952.61,346c0,.93-5.87,6.76,4,8.23,2.25.34,2.87,4.95-1.52,7-8.38,3.87-8.23,4-1.46,9.5,3,2.44,3.29,6.85-.44,6.9-8.82.12-9.52,5.49-10.08,11.81-.34,3.85-2.33,6-6.41,5.25-4.75-.82-2.07-4.23-2.23-6.66-.23-3.32,5.19-8.32-2-9.53-5.92-1-5.37,4.47-6.25,8.27s-.58,9.29-6.62,7.71c-5.47-1.42-1.53-5.9-1.54-9,0-2.22,2.2-5.23-.36-6.51-9.69-4.82-8.28-6.64,1.34-9.06,4.26-1.07,5.46-6.31-.14-8.32-3.24-1.17-5-1.93-4.38-5.46s3.56-2.45,5.72-2.63c7.42-.6,5.45-6.8,6.45-11,.81-3.45,1.58-6.38,5.94-5.93,5.69.58,2.67,4.52,2.79,7.3.13,3.27-5.11,8.26,1.88,9.38s5.46-5.32,6.49-9.23c.89-3.36.51-7.71,5.9-7.46C954.52,336.77,952.78,340.15,952.61,346Z"/><path class="cls-3" d="M1136.94,250c-.87,5-4.44,9.7,4,12.49,3.59,1.19,1.5,5.33-3.44,6.64-6.53,1.73-9.07,5.51-.86,9.17,5.31,2.36,5.28,6.47.48,6.9-8,.73-8.93,5.08-9.56,11.09-.35,3.25-1.3,6.72-5.74,6.16-5.54-.71-2.61-4.63-2.52-7.43.1-3.12,4-7.48-1.83-8.81s-5.81,3.6-6.81,7.55c-.88,3.49-.13,9.61-6,8.47-6.51-1.27-1.68-6.34-1.74-9.75,0-1.58.72-4.28.13-4.59-9.79-5.17-9.91-7.91,1.49-10.72,3-.73,4.1-6.6-2.28-8.47-5.35-1.57-5.14-6.39-.41-6.79,8-.69,8.83-5.17,9.46-11.1.35-3.24,1.11-6.77,5.58-6.33,5.52.54,2.86,4.41,2.73,7.3-.15,3.16-3.89,7.66,1.43,9.08,6.66,1.79,6.27-4.05,7.25-8.28.83-3.6.29-8.85,6.53-8C1138.57,245.14,1137,248.13,1136.94,250Z"/><path class="cls-3" d="M1165.22,253.39c.17,2.75-3.08,6.69,2.31,7.67,5,.91,6-2.65,6.55-6.54a55.15,55.15,0,0,1,1.57-7.05c.83-3,3.12-3.49,5.69-2.77s2.09,3,1.77,4.93c-.85,5.06-4.5,10.32,4.24,13.15,3,1,1.1,4.74-3,6.28-7.7,2.85-7.76,4.72-1.1,9.32,4.35,3,4.91,6.56-.49,7-7.28.61-8.38,4.53-9,10.18-.38,3.61-1.13,7.85-6.31,6.77s-2-5-1.92-7.77c.08-3.11,3.9-7.5-2.4-8.48-5.1-.8-5.67,3.17-6.19,6.94-.28,2-1,3.9-1.4,5.86-.65,2.87-2.49,4-5.28,3.49-3.65-.65-2.59-3.46-2.27-5.66.67-4.7,4.47-9.85-4.22-12-2.31-.56-2.18-5.51,2.71-6.52,8.63-1.78,10.1-4.88,1.41-9.55-4.66-2.5-5-6.54.49-6.94,7.41-.53,8.28-4.67,8.92-10.19.43-3.61,1-8,6.11-6.95C1169.57,245.92,1165,250.33,1165.22,253.39Z"/><path class="cls-3" d="M1488.59,435.33c.23,3.45-4.82,8.45,1.59,9.95,6.78,1.58,5.84-4.68,6.89-8.71.86-3.27.48-8.3,5.69-7.6,6.31.86,1.7,5.53,2.26,8.49,1.41,7.37,8.23,15.46-3.75,20.57-1,.45-.18,3.07,2,4.55,6.35,4.38,6.33,5.1-1.38,7.66-5.38,1.78-4.5,5.95-5.36,9.63-.83,3.53-1.1,7.84-6.31,6.86s-2.1-4.92-2-7.7c.07-3.11,3.92-7.46-2.31-8.53-5.08-.88-5.74,3-6.26,6.85-.26,2-.93,3.91-1.38,5.87-.64,2.82-2.39,4-5.23,3.57-3.66-.61-2.64-3.38-2.37-5.61.56-4.62,4.79-9.95-4.17-12-2.25-.51-2.32-5.57,2.63-6.56,8.59-1.73,10.22-5,1.49-9.48-4.18-2.15-3.59-6.8-.82-6.76,9.82.15,9.59-6.45,10.59-12.79.49-3.11,2.12-5.23,5.7-4.75C1490.77,429.49,1488.47,432.9,1488.59,435.33Z"/><path class="cls-3" d="M87.8,205.71c.28-5.76,4.89-10.81-3.67-12.77-2.81-.64-3.26-5.73,1.42-6.62,10.23-1.95,10-5,1.66-9.92-3.6-2.14-3.53-6.62.19-6.7,8.92-.19,9.13-5.89,9.92-12,.47-3.58,2.11-6.35,6.33-5.29s2,4.33,1.91,6.87c-.08,3.39-4.56,8.35,2.24,9.51,6,1,5.34-4.38,6.31-8.13.91-3.56.24-9.41,6.26-8.15,5.86,1.23,1.57,5.77,1.53,8.87,0,1.59-1,4.25-.45,4.61,9.58,6.05,8.29,9.7-2.07,12.67-1.25.36-3.73,5.91,1.65,7.22,2.37.57,4.86.63,4.8,4s-2.44,3.75-4.94,3.72c-7.36-.1-6.46,5.68-7.35,10.19-.75,3.75-1.71,7.58-6.77,6.25-4.27-1.13-1.77-4.5-1.66-7,.13-3.16,3.91-7.6-1.52-9-6.77-1.73-6.06,4.3-7.2,8.39-.89,3.16-.26,7.88-5.63,7.77C86,210.17,87.94,206.56,87.8,205.71Z"/><path class="cls-3" d="M1195.35,199a5,5,0,0,0-2-5.28c-5.68-4.8-5.48-5,.38-7.71,6.41-3,7.85-5.92.31-9.56-4.82-2.33-5-6.6.37-6.91,8.42-.47,8.3-5.79,9.12-11.35.5-3.38,1.57-6.66,5.93-5.88,5.41,1,2.21,4.81,2.24,7.62,0,3.08-4.08,7.52,1.9,8.82s5.89-3.62,6.78-7.59c.8-3.6,0-9.58,5.8-8.71,6.91,1,.66,6.78,2.11,9.47,4.19,7.77,6,14.32-3.56,19.5-1.14.62-.69,3.93,2.09,4.38s5.84.59,5.25,4.77c-.5,3.47-3.3,3-5.55,3.06-6.61.29-5.72,5.55-6.6,9.66-.75,3.55-1.12,7.85-6.32,6.82s-2.06-5-2-7.72c.07-3.11,3.9-7.48-2.36-8.51-5.08-.85-5.74,3.08-6.21,6.89a46.09,46.09,0,0,1-1,4.71c-.71,2.95-1.89,5.5-5.62,4.68-4.46-1-2.26-4.31-2.06-6.79A26.49,26.49,0,0,1,1195.35,199Z"/><path class="cls-3" d="M934.51,480.87c-.23-3.49,5-8.54-1.2-10.13-7.68-2-5.95,5.42-7.39,9.51-1,2.82-.77,7.22-5.42,6.53-6.31-.95-2.28-5.44-2.36-8.47,0-.77.79-1.89.49-2.29-5.26-6.84-7.89-13.07,3.12-16.93a2.66,2.66,0,0,0,.28-2.24c-18.25-13.49,15.36-14.59,6.37-26.15-.57-.73,3-2.36,5-1.69,4.85,1.69,1.58,5.22,1.59,8,0,3.06-3.79,7.54,2.56,8.42,5.16.71,5.62-3.33,6.11-7a5.88,5.88,0,0,1,.16-1.19c1.18-3.49.3-9.4,6.32-8.14,5.85,1.24,1.56,5.78,1.52,8.88,0,1.59-1,4.25-.44,4.62,9.65,6.06,8.22,9.68-2.08,12.66-1.25.36-3.73,5.92,1.66,7.21,2.38.57,4.86.64,4.8,4s-2.46,3.71-5,3.72c-8.22,0-6.34,6.81-7.54,11.4-.93,3.56-2.44,6.07-6.59,5.09C932.86,485.87,934.63,483,934.51,480.87Z"/><path class="cls-3" d="M704.26,161.22c.16,2.75-3.07,6.7,2.34,7.65,5,.89,6-2.68,6.52-6.57a56.79,56.79,0,0,1,1.58-7c.84-3,3.15-3.47,5.7-2.75s2.08,3,1.75,5c-.86,5.07-4.47,10.31,4.25,13.15,3,1,1.07,4.73-3.07,6.26-7.67,2.83-7.73,4.71-1.07,9.32,4.33,3,4.87,6.58-.52,7-7.3.6-8.36,4.56-9,10.2-.39,3.61-1.14,7.85-6.32,6.73s-2-5-1.89-7.79c.08-3.11,3.88-7.51-2.45-8.45-5.11-.76-5.63,3.22-6.17,7-.28,2-1,3.9-1.4,5.86-.65,2.9-2.53,4-5.3,3.45-3.65-.67-2.56-3.49-2.23-5.68.7-4.72,4.44-9.86-4.25-12-2.32-.56-2.1-5.48,2.76-6.5,8.61-1.81,10.09-4.9,1.36-9.56-4.63-2.47-5-6.55.54-6.93,7.44-.51,8.24-4.71,8.9-10.21.43-3.61,1-8,6.13-6.91C708.6,153.76,704.06,158.16,704.26,161.22Z"/><path class="cls-3" d="M42.39,294.1c.29-2.91,2.2-5.94-.39-7.26-9.73-4.94-8.25-6.76,1.42-9.24,4.15-1.07,5-6.19-.48-8.47-2.43-1-4.53-1.39-4.15-4.61.41-3.47,3.05-3.15,5.39-3.23C51.61,261,50,254.9,51,250.61c.8-3.24,1.42-6.71,5.82-6.12,5.47.74,2.56,4.61,2.51,7.46-.06,3.12-4,7.5,1.63,9s6.35-3.17,6.9-7.34c.21-1.59.58-3.16,1-4.73.75-3.12,2.38-5.21,5.94-4.23s2.29,3.71,1.83,5.9c-1,4.88-4,9.89,4.33,11.93,2.25.55,2.1,4.37-1.47,6.29-8,4.28-7.8,4.41-1.72,9.87,2.92,2.62,3.55,6.62-1,6.77-8.14.25-8.71,5.25-9.42,11.1-.39,3.32-1.5,6.66-5.9,5.92-5.49-.92-2.3-4.81-2.26-7.59,0-3.1,4.06-7.51-2.09-8.66-6-1.11-5.59,4-6.63,7.8-.94,3.46-.14,9.4-6.19,8.3S42.71,296.52,42.39,294.1Z"/><path class="cls-4" d="M819.41,268.8c-3.51.72-8.11-2-9.86,4-1.82,6.32,3.41,4.33,5.8,6.08,3.09,2.25,3.46,6.56-1.31,6.49-8.53-.12-8.41,5.45-9.33,11-.52,3.18-1.33,6.8-5.87,6-5.67-1-1.92-4.87-2-7.58-.07-3.1,3.95-7.52-2.1-8.8s-6.14,3.47-6.78,7.54c-.31,2-1.07,3.89-1.53,5.85-.75,3.2-3.13,3.47-5.59,2.86-2.74-.67-2-3-1.68-4.9.82-5,4.7-10.52-4.39-12.93-2.38-.64-1.69-6,3.21-6.11,3.18-.07,5.28-.75,5.87-4.43.64-3.93-1.37-4.36-4.47-5.36-5.5-1.76-5-6.5-.15-6.69,8.4-.32,8.66-5.22,9.45-11,.42-3.14,1-6.91,5.57-6.39,5.68.66,2.41,4.56,2.44,7.36,0,3.32-4.45,8.43,2.72,9.3,6.18.75,5.09-4.66,6.22-8.28,1.07-3.43.15-9.58,6.28-8.12,5.81,1.38,1.67,6,1.09,8.94-1.17,5.74.15,8.56,6.42,7.7Zm-18.14,4.44c1-4.08-1.44-4.17-3.94-4.37-4.73-.37-4.57,3.55-5.35,6.31s1.67,2.77,3.54,3.07C799.84,278.94,800.93,276.23,801.27,273.24Z"/><path class="cls-5" d="M287.29,244.38c6.14.65,1.94,5,2.2,7.91s-4.2,7.42,1.89,8.85c5.69,1.34,6.64-2.68,7-7.11.18-2,1-3.9,1.38-5.87.56-2.83,2.11-4.19,5.06-3.71,3.79.62,2.6,3.23,2.17,5.5-.95,5-4.6,10.43,4.52,12.64,2.55.61,2.23,6.07-2.74,6.09-3.9,0-5.72,1.4-6.67,5.14-1.55,6.12,3.43,3.48,5.66,4.7,3.82,2.08,3.44,6.73.19,6.65-8.79-.22-9.63,4.89-10.4,11.29-.37,3.09-1.1,6.78-5.72,6.06-5.93-.92-2-4.73-2-7.38-.08-3.13,3.85-7.53-1.59-9.06-6.59-1.85-6.31,3.68-7.57,7.93-1,3.27.18,9.79-6,8.28s-.11-6.89-1.51-9.64c-3.71-7.29-7.66-13.38,3.31-18.58,2.93-1.4,0-5.42-4.26-5.35-2.62,0-3.29-1.75-3.06-4.05.17-1.71.72-3.46,2.71-3.17,9.35,1.37,8.93-5.44,9.93-11.34C282.28,247.48,282.76,244.37,287.29,244.38Zm6.91,29.91c1.21-5.25-1.35-5.19-3.83-5.46-4.93-.54-4.71,3.59-5.59,6.36-1,3,1.72,2.76,3.59,3.09C292.79,279.06,293.93,276.26,294.2,274.29Z"/><path class="cls-4" d="M180,297.18c1-5.34,4.51-10.14-4.2-12.49-3.16-.86-1.61-6.5,3.76-6.37,3.73.1,4.77-2,5.15-5.15s-1.31-4.24-4.11-4.38c-2.36-.11-3.63-1.32-3.59-3.75s1.34-3.88,3.69-3.62c7.86.86,7.89-4.71,8.68-10,.53-3.52,1-8,6.25-6.81s1.5,5,1.71,7.78c.24,3-4,7.52,2.21,8.71,5.94,1.13,6.16-3.49,6.71-7.58.21-1.58.75-3.12,1.08-4.7.68-3.21,2.35-5.25,5.86-4.18s1.95,3.78,1.52,6c-.94,4.82-3.83,9.65,4.43,11.85,2.84.76,2.34,6-2.51,6.19-3.86.19-5.77,1.53-6.56,5.35-1,4.79,2.52,3.95,5,4.42s3.09,2.06,2.93,4.32c-.15,2-1.44,3-3.11,2.86-8.4-.92-8.54,5-9.39,10.72-.47,3.12-1.18,6.79-5.73,6.13-5.74-.84-2.2-4.7-2.19-7.42,0-3.13,3.84-7.46-1.83-8.94s-6.45,3-7,7.22c-.19,1.58-.89,3.1-1.15,4.68-.55,3.31-2.15,5.21-5.71,4.38C178.17,301.51,180.29,298.62,180,297.18Zm16.78-19c5.18,1,4.79-3.19,5.45-6,.6-2.58-1.44-3.05-3.57-3.32-4.51-.59-4.95,2.75-5.82,5.75C191.63,278.69,194.8,277.86,196.76,278.16Z"/><path class="cls-5" d="M687.34,483.05c.09-6.51,5.36-12.54-4.55-13.56-1.62-.17-3.19-6,2.15-6.65,3.33-.39,6.07-.19,6.93-4.66,1-5.41-2.69-4.1-5.44-5.29-3.88-1.66-3.3-6.73-.13-6.61,8.92.33,9.59-4.91,10.31-11.3.34-3.12,1.13-6.82,5.68-6.15,5.8.87,1.94,4.72,2.14,7.41.24,3.26-4.51,8.24,2.55,9.34,6.15,1,5.66-4.05,6.39-7.91a38.4,38.4,0,0,1,2-7c.93-2.37,3.16-2.11,5.12-1.72s2.12,2.1,1.81,3.72c-1.09,5.7-5.24,11.73,4.57,14.89,2.57.82.6,6-3.91,5.54s-5.37,2.6-6,5.82c-1.08,5.13,3.18,3.23,5.37,3.8,2.44.63,3,2.1,2.87,4.35-.13,2-1.3,3.14-3,2.9-9.51-1.32-8.58,6-9.75,11.57-.73,3.47-2.1,6.38-6.36,5.24-4.62-1.23-1.44-4.42-1.44-6.84,0-3.38,4.52-8.27-2.17-9.58-7-1.39-5.45,5-7,8.73-1.18,2.94.19,7.93-5.46,7.83C684.79,486.86,687.39,483.26,687.34,483.05Zm21.86-25.41c1.25-4.41-1.54-4.14-4-4.42-4.93-.56-4.7,3.58-5.58,6.35-1,3,1.71,2.76,3.58,3.09C707.65,463.44,708.8,460.64,709.2,457.64Z"/><path class="cls-4" d="M290.58,200.23c.08-3.16,1.12-6-2.57-6.42-3-.38-5.72,0-6.42,3.7-.3,1.59-.27,3.29-.87,4.74-1.35,3.29-.32,9.59-6.51,7.75-5.29-1.57-.25-6.19-1.14-9.07-2.2-7.05-8.49-14.48,3.53-18.85.41-.15.53-3.11.1-3.32-17.42-8.36-2.26-8,2.52-11.71,2.47-2,2.14-7.42,3.14-11.28.73-2.78,2.61-3.9,5.41-3.45,3.69.59,2.73,3.21,2.33,5.51-.35,2-1,3.91-1.26,5.89-.32,2.35-.87,5,2.81,5.26,2.49.17,5,.1,5.86-2.85s1.35-6.29,2-9.44,2.27-5.29,5.82-4.24,2,3.73,1.6,5.93c-.85,4.75-3.93,9.31,4.3,12,3.59,1.16,1.69,6.34-3.55,6.25-3.72-.06-4.63,2.24-5.36,5.18-1.17,4.71,2.37,4,4.9,4.46s3.14,2,3,4.28c-.22,2.79-2.29,3.14-4.28,3-5.12-.34-7,2.19-7.72,7-.59,3.91.33,10.76-6.13,9.48C284.84,208.57,291.58,203,290.58,200.23Zm-1.78-14.18c4.17.85,4.9-2.21,5.56-5.47.72-3.61-1.67-3.67-4.13-3.9-3.91-.37-4.13,2.65-5.07,5.19C283.89,185.28,285.75,186,288.8,186.05Z"/><path class="cls-5" d="M427.68,202.83c-.57-2,5.31-7.45-2.06-9-7-1.47-5.25,5.24-6.78,8.89-1.23,2.93,0,8.4-5.61,7.53-6.65-1-1.85-5.55-1.78-8.43.08-3.73,2.52-7.16-4.13-8.87-3.6-.93-4.47-6.73,2.42-6.76,3.61,0,4.79-1.55,5.55-4.77,1-4.26-1.24-4.82-4.47-4.86-2.47,0-3.58-1.34-3.4-3.8.13-1.68.61-3.67,2.46-3.4,9.08,1.33,9.37-4.9,10.17-11.11.41-3.18,1.29-6.8,5.82-6,5.75,1.05,1.68,4.87,1.93,7.53.3,3.09-4,7.53,1.59,9.06,6.51,1.78,6.89-3.34,7.44-7.93a46.93,46.93,0,0,1,1.53-5.84c.8-3.23,3.29-3.33,5.66-2.64,2.69.79,1.54,3.09,1.4,5-.34,4.68-5.83,10.73,4.24,12.68,2.44.47,2.8,6.2-2.28,6.25-4.66,0-6.53,2-7.15,6.13-.8,5.22,3.55,2.74,5.59,3.72,4.08,2,3.47,6.83.76,6.66-10.8-.66-9.67,7.25-11.17,13.42-.84,3.46-3,4.67-6.17,3.9C425.4,209.3,427.61,206.5,427.68,202.83Zm5.29-23c.28-3.83-2.73-3.08-4.94-3.14-4.84-.11-4.42,4.17-5,6.93-.61,3.11,2.52,2.15,4.21,2.43C432.13,186.87,432,182.86,433,179.83Z"/><path class="cls-4" d="M704.13,387.07c-.27-1.85,5.18-7.31-2-8.76-6.9-1.4-5.22,5.34-6.67,9.05-1.18,3-.42,8.42-5.92,7.16-6.16-1.4-1.35-5.78-1.51-8.79-.09-1.58,1-4.26.47-4.61-11-6.85-5.71-9.93,2.52-13.18,1-.42,2.66-5.55-1.67-6.63-2.8-.71-5.85-.52-5.18-4.75s4.23-2.69,6.7-3.11c6.48-1.11,4.41-6.69,5.59-10.53.94-3.06,1.24-6.83,5.73-6.24,5.63.74,2.3,4.62,2.34,7.4.06,3.31-4.42,8.41,2.75,9.25,6.15.73,5.08-4.64,6.21-8.25,1.06-3.42.11-9.53,6.22-8.17,5.93,1.32,1.1,5.84,1.29,8.9.07,1.18-.86,3.11-.38,3.48,9.11,7.11,4.43,10.81-2.73,15.57-3,2-.8,5.71,3.73,5.74,2.35,0,3.66,1.32,3.47,3.82-.13,1.72-.66,3.5-2.62,3.28-9-1-9.09,5.51-10,11.5-.54,3.43-1.9,6.28-6.29,5.41C702.21,393.83,704.11,391,704.13,387.07Zm.07-16.62c4,1.19,4.26-2.42,5-5.5.85-3.58-1.63-3.66-4.1-3.89-3.91-.36-4.13,2.65-5.07,5.19C698.75,369.67,700.61,370.36,704.2,370.45Z"/><path class="cls-5" d="M935.06,204.82a72.79,72.79,0,0,0,.81-9.52c0-.58-2.54-1.43-4-1.57-4.58-.45-4.44,3.13-5.55,6.2-1.41,3.87.75,11.81-6.8,10-5.75-1.37-.35-6.62-.73-10.09a2.45,2.45,0,0,1,.19-1.19c3.19-7.15-8.89-2.82-7.06-9.67,1.55-5.85,9.1.19,10-6,.5-3.4,1.58-6.53-3.71-6.38-3.19.09-4-1.78-3.69-4.66s2.47-3,4.42-2.75c7.45.8,7-4.67,7.85-9.37.63-3.34.43-8.18,5.72-7.51,6.75.86,1.64,5.45,2.1,8.33s-4,7.45,2.6,8.41c5,.74,6-2.51,6.42-6.55.24-2.38,1.15-4.69,1.62-7.05.64-3.19,2.86-3.61,5.43-3.08,2.85.59,2.23,2.82,1.79,4.74-1.24,5.48-4.46,11,4.69,13.73,2.54.76,1.09,6-3.59,5.7-4.37-.33-5.44,2.22-6.23,5.6-1.19,5.07,2.85,3.4,5.09,4.07,4.79,1.43,3.54,6.78,1.57,6.64-11.38-.83-10.12,7.78-11.84,14.24-.81,3-2.91,3.54-5.51,3.2C932.6,209.77,934.53,206.91,935.06,204.82Zm5.1-25.41c-.11-3-2.76-2.71-5.08-2.74-4.84,0-4.42,4.19-5,7-.6,3.11,2.52,2.15,4.22,2.43C939.18,186.86,939,182.86,940.16,179.41Z"/><path class="cls-5" d="M1378.87,298.7c-.2-6.35,5.45-12.4-4.53-13.58-1.88-.22-3.21-6.13,1.93-6.57,4.2-.36,6.78-1.15,7.19-5.85s-3.14-3.45-5.56-4c-1.8-.41-2.51-1.66-2.49-3.46,0-2.31.91-4.13,3.42-3.79,7.59,1,8.37-3.88,9-9.53.38-3.37.5-8.17,5.76-7.4,6.69,1,1.54,5.51,2,8.41s-3.89,7.47,2.72,8.34c5.09.66,5.91-2.69,6.34-6.66a70.46,70.46,0,0,1,1.64-7c.68-3.19,3-3.54,5.49-3,2.79.64,2.11,2.88,1.68,4.8-1.25,5.5-4.43,11,4.76,13.73,2.53.75.85,6-3.74,5.62s-5.42,2.41-6.15,5.71c-1.13,5.1,3,3.4,5.24,3.91,2.44.55,3.14,2,3,4.25-.12,1.91-1.12,3.25-2.9,3-9.4-1.32-8.74,5.77-9.85,11.47-.67,3.41-1.91,6.44-6.27,5.37-4.69-1.15-1.59-4.35-1.58-6.76,0-3.39,4.53-8.25-2-9.67-7-1.51-5.63,4.81-7,8.62-1.2,3.31-.11,9-6.6,7.79C1376.44,301.68,1378.86,298.67,1378.87,298.7ZM1395,278.27c4.32,1,4.94-2.31,5.79-5.56.72-2.79-.76-3.46-3-3.87-4.26-.76-5.42,1.82-6.52,5.22C1390.1,277.76,1392,278.21,1395,278.27Z"/><path class="cls-4" d="M76.45,431.7c-.14,7.42-5,12.55,4.14,15,3.7,1,2.26,6.37-3.12,6.43-3.59,0-4.75,1.9-5.6,4.94-1.27,4.53,1.8,4.39,4.59,4.7,2.46.27,3.4,1.67,3.25,4-.12,1.83-1,3.32-2.82,3.12-9.2-1-8.8,5.87-9.85,11.66-.65,3.52-2.28,6.35-6.45,5.1-4.34-1.3-1.43-4.52-1.4-7,.05-3.39,4.45-8.36-2.62-9.34-6.14-.85-5,4.63-6.3,8.18-1.18,3.31-.08,9.55-6.29,8.07-5.81-1.38-1.2-5.84-1.29-8.91-.06-2,.9-5.41.2-5.75-10.65-5.26-10-7.83,1.51-10.23,2.32-.48,5-7-1.82-8.43-3-.61-4.13-1.81-3.78-4.77a2.79,2.79,0,0,1,3.28-2.69c8.64.94,8.21-5.43,9.13-10.92.53-3.21,1.35-6.8,5.81-6,5.6,1,1.94,4.82,2.09,7.56.15,3.08-4,7.48,1.82,8.95s6.51-2.88,7-7.18a58,58,0,0,1,1.38-5.87c.64-2.9,2.49-4,5.28-3.42C78.37,429.73,76.53,432.56,76.45,431.7ZM59.78,453.29c-4.12-1-4.17,2.84-5.24,5.66s.77,3.31,2.84,3.66c3.83.64,5.71-1,6.4-4.82C64.33,454.71,63.54,453.29,59.78,453.29Z"/><path class="cls-6" d="M842.66,387.51c-.39-2.31,4.91-7.85-2.33-9.24-6.92-1.33-5.2,5.47-6.77,9.11-1.26,3-.28,8.45-5.94,7.06-5.11-1.26-1.12-5.2-1.46-7.91-.91-7.2-9-15.66,3.78-20.34a1.32,1.32,0,0,0,.19-1.12c-17.79-13,13.26-14.77,6-25.66-.79-1.18,2.24-2.93,4.46-2.65,3.7.45,2.94,3,2.48,5.42-.38,2-.88,3.95-1.13,5.94-.3,2.4-.7,5,2.93,5.26,2.51.16,5,0,5.86-2.91.76-2.7,1.08-5.54,1.81-8.26s1-6,5-5.43c4.74.7,2.41,4,2.17,6.56-.41,4.32-3.66,8.71,4.23,11.18,4.11,1.29,2.19,6.24-3.05,6.4-3.59.1-4.82,2.06-5.55,5.1-1.08,4.56,2.45,3.81,4.91,4.75,4.22,1.62,4.08,6.44.76,6.41-9.84-.09-9.44,6.66-10.71,12.8-.63,3-2,5.3-5.72,4.59C840.67,393.82,842.49,391.07,842.66,387.51Zm5.18-23.14c.12-3.71-2.65-3.31-4.92-3.28-4.53.05-4.57,3.88-4.94,6.8s2.46,2.32,4.22,2.55C846.81,371,847,367.35,847.84,364.37Z"/><path class="cls-6" d="M1533.77,253.18c.41,2.74-3,6.73,2.2,7.91,4.7,1.07,6.49-1.65,6.91-6,.23-2.39,1.13-4.7,1.65-7.06.65-3,2.55-4,5.32-3.29s2.08,3,1.69,4.89c-1,5.22-4,10.62,4.51,13.16,2.34.69,1.6,4.29-2.07,6-8.59,3.94-8.49,4.26-1.36,9.85,2.86,2.25,3.05,6.43.23,6.36-9.45-.23-10,5.92-11,12.45-.46,2.89-1.59,5.61-5.42,5-4.83-.79-2.22-4.05-2.16-6.53.08-3.46,4.34-8.43-2.13-9.81-7-1.48-5.56,5-7.07,8.74-1.2,3-.09,8.58-5.65,7.46-6.33-1.29-1.29-5.78-1.51-8.78-.17-2.28,1.74-5.52-.67-6.7-10.19-4.95-8.24-6.7,1.37-9.12,4-1,5.24-6,0-8.62-2.08-1-4.88-.66-4.73-4.1s2.62-3.7,5.1-3.57c6.71.33,6.18-4.75,7.14-9,.74-3.29.36-8.38,5.58-7.73C1538.26,245.49,1533.25,250.24,1533.77,253.18Zm5.5,19c.16-3.71-2.61-3.33-4.89-3.31-4.54,0-4.59,3.87-5,6.79s2.44,2.34,4.21,2.57C1538.22,278.83,1538.4,275.19,1539.27,272.2Z"/><path class="cls-6" d="M1073.71,160.71c.4,1.35-5.35,7.14,2.38,8.18,7,.94,4.93-5.79,6.45-9.43,1.26-3,.68-8.49,6.18-6.8,4.74,1.46.53,5.47,1.15,8.17,1.67,7.42,8.12,15-3.66,20.77-2.86,1.39,1.06,4.33,4.12,4.65,2.37.25,3.54,1.53,3.39,4-.12,1.89-1.13,3.26-2.92,3.08-8.21-.84-8.73,4.83-9.62,10.65-.46,3-.94,7-5.59,6.24-5.77-1-1.86-4.85-2-7.54-.15-3.11,3.73-7.57-2.28-8.83s-6.14,3.51-6.87,7.51c-.36,2-1.09,3.89-1.52,5.86-.53,2.42-2.14,3.22-4.37,3.06-3.79-.29-2.81-2.89-2.64-5.29.3-4.44,5.39-10-3.93-12.17-2.83-.66-2.89-5.54,2-6.55,9.62-2,10.43-5.1,1.44-9.9-3.9-2.08-3.54-6.66,0-6.56,10.28.29,8.83-7.24,10.38-13,.82-3.07,2.36-5.27,6-4.24S1073.41,156.35,1073.71,160.71Zm3.89,23.23c1.27-6.83-1-7.08-3.57-7.29-4.63-.37-4.88,3.31-5.6,6.22s1.63,2.93,3.62,3.21C1076.31,186.7,1077.58,184.07,1077.6,183.94Z"/><path class="cls-6" d="M934.86,295.57c-.4-2.49,4.86-8-2.25-9.48-6.92-1.45-5.28,5.35-6.84,9-1.26,2.95-.2,8.45-5.88,7.17-5.21-1.18-1.3-5.13-1.54-7.85-.63-7.13-9.28-15.72,3.77-20.34a1.4,1.4,0,0,0,.19-1.12c-17.7-13,13.23-14.78,6-25.66-.81-1.21,2.19-3,4.42-2.75,3.68.38,3.06,2.92,2.57,5.36-.4,2-.9,4-1.14,5.94-.28,2.36-.81,5,2.85,5.32,2.48.19,5,.14,5.9-2.81.69-2.32.72-4.83,1.5-7.1,1-2.78.58-7.35,5.3-6.62,5.59.86,2,4.88,1.94,7.61-.08,2-1.32,5.29-.55,5.81,10.06,6.88,5.58,10.22-2.62,13.65-1.26.53-3.11,5.29,1.57,6.37,2.72.62,6,.46,5.33,4.71-.51,3.44-3.39,2.86-5.63,3-8.37.44-5.2,7.75-7.07,12-1.22,2.75-2,5.32-5.76,4.66C933,301.71,934.6,299,934.86,295.57Zm-5-19.92c.41,2.85,2.94,2.52,5.19,2.63,4,.19,4.18-2.94,4.82-5.55.89-3.64-1.75-3.68-4.19-3.87C931,268.5,931.13,272.34,929.84,275.65Z"/><path class="cls-6" d="M288.7,343.35c.9,4.73-2.5,8.71,2.64,9.92,4.66,1.09,6.53-1.56,6.94-5.95.23-2.38,1.13-4.7,1.65-7.06.65-2.94,2.49-4.05,5.29-3.34s2.11,2.91,1.75,4.86c-1,5.16-4.22,10.67,4.47,13.16,2.35.68,1.67,4.3-2,6-8.63,4-8.54,4.34-1.44,9.85,2.9,2.25,3.07,6.42.28,6.36-9.41-.2-10,5.89-11,12.44-.44,2.88-1.56,5.62-5.4,5-4.83-.76-2.24-4-2.18-6.51.09-3.46,4.34-8.42-2.11-9.82-6.94-1.51-5.58,5-7.08,8.71-1.2,3-.08,8.58-5.63,7.48-6.37-1.26-1.32-5.76-1.54-8.76-.17-2.28,1.74-5.54-.65-6.7-10.11-4.89-8.4-6.7,1.33-9.13,4-1,5.27-6,0-8.62-2.06-1.05-4.88-.65-4.75-4.08s2.59-3.73,5.08-3.6c6.71.36,6.2-4.71,7.16-9,.74-3.28.32-8.37,5.55-7.76C293.73,337.63,288.23,342.51,288.7,343.35Zm.08,27.1c4.13.78,5-2.24,5.78-5.52.6-2.65-.82-3.5-3.06-3.86-4.07-.67-5.54,1.64-6.52,5.1S285.7,370.37,288.78,370.45Z"/><path class="cls-1" d="M543.22,371.69a46.12,46.12,0,0,0,0-4.85c-1-9.34-.87-17.07,12.56-15.21,7.2,1,14.43,2.12,22.21.1,5.67-1.47,8.49,5.25,8.74,10.84.39,8.87.19,17.76.27,26.65,0,3-.05,5.51-4.24,5.63-4.38.12-5.52-1.83-5.43-5.8.16-7.67.07-15.35,0-23,0-2.31.23-5.42-3.09-5.5-2.83-.08-4,2.43-4.09,5-.19,7.67-.26,15.34-.26,23,0,3.5-.16,6.26-5,6.32-5.13.07-4.62-3.17-4.65-6.39-.05-7.67,0-15.35-.21-23-.06-2.39-.85-5.12-4-4.78-2.25.24-2.93,2.61-3,4.68-.15,7.67-.21,15.35-.25,23,0,3.37.09,6.32-4.78,6.49-5,.17-4.85-2.86-4.83-6.22C543.24,383,543.22,377.34,543.22,371.69Z"/><path class="cls-1" d="M266.64,95.43a53.06,53.06,0,0,0,0-6.05c-1.09-9.25-.9-16.15,12.31-14.35,7,1,14.35,3,22.2.06,4.87-1.85,8.48,4.32,8.8,9.39.62,9.65.28,19.37.5,29.06.08,3.78-1.69,4.77-5.17,4.72-4-.05-4.51-2.3-4.49-5.47.05-7.67.05-15.35-.07-23,0-2.27.46-5.48-2.8-5.73-3.71-.28-4.37,2.93-4.45,5.81-.18,6.46.08,12.94-.31,19.38-.21,3.43,2.37,8.63-4.53,9-7.28.38-4.69-5-4.88-8.43-.34-6,0-12.11-.16-18.17-.08-3.08.4-7.71-3.81-7.48-4,.21-3.33,4.86-3.41,8-.16,6.46-.2,12.93-.06,19.39.09,4.11-.4,7.09-5.71,6.77-5.47-.32-3.74-4.27-3.86-7.08C266.48,105.94,266.64,100.68,266.64,95.43Z"/><path class="cls-2" d="M681.5,95.8a34.75,34.75,0,0,0,0-6c-1.88-10.56,1-16.51,13.13-14.82,7,1,13.69,2.27,21.17.12,5.81-1.67,8.91,4.69,9.19,10.29.47,9.24.19,18.53.33,27.79.06,3.34-.86,5.18-4.72,5.14-3.66,0-5-1.48-4.95-5,.11-6.85.26-13.71-.1-20.54-.16-3.14,2-8.71-3.47-8.5-4.41.17-3.78,5.42-3.86,9-.14,6-.13,12.09,0,18.13.06,3.91,0,7.19-5.48,7-5.35-.21-4.06-3.92-4.13-6.84-.18-7.24-.1-14.5-.23-21.75,0-2.5-.71-5.51-3.43-5.6s-3.51,2.89-3.55,5.4c-.13,7.25-.21,14.5-.17,21.76,0,3.84.17,7.22-5.41,7-5.31-.18-4.12-3.82-4.2-6.77C681.41,106.28,681.51,101,681.5,95.8Z"/><path class="cls-1" d="M1004.17,465.26c0-2,.09-4,0-6.06-.43-8.79-1.9-17.56,12.43-15.39,7.08,1.07,14.38,2.38,22.21.1,5.59-1.62,8.58,5.12,8.84,10.71.42,8.86.22,17.76.28,26.64,0,2.88.21,5.64-4.09,5.77s-5.69-1.54-5.58-5.64c.2-6.86.22-13.74,0-20.6-.11-2.88,1.53-7.72-2.94-7.88-5-.19-4.31,4.86-4.42,8.29-.2,6.46-.11,12.93-.09,19.39,0,3.38.08,6.32-4.79,6.47-5.05.16-4.83-2.88-4.82-6.23,0-6.87.1-13.74-.07-20.6-.07-3,.48-7.45-4-7.31-3.39.11-3.18,4.12-3.24,6.89-.13,6.06.16,12.13-.22,18.17-.21,3.42,2.39,8.62-4.51,9-7.26.4-4.63-5-4.9-8.4C1003.91,474.17,1004.17,469.7,1004.17,465.26Z"/><path class="cls-2" d="M1234.66,96.39c0-2,0-4,0-6,0-15.33,0-16,14.85-15.37,6.33.3,12.14,1.52,18.79,0s9.59,4.86,9.87,11c.41,8.85.19,17.73.24,26.59,0,2.9.14,5.58-4.12,5.71s-5.68-1.55-5.56-5.64c.2-6.84.21-13.7,0-20.54-.11-2.89,1.48-7.73-3-7.84-5-.12-4.24,4.93-4.35,8.36-.2,6.44-.12,12.89-.08,19.34,0,3.44-.06,6.25-4.88,6.35-5.05.11-4.74-3-4.76-6.27,0-7.66,0-15.31-.25-23-.07-2.37-.78-5.15-3.9-4.83-2.22.23-2.93,2.59-3,4.66-.15,7.66-.2,15.31-.22,23,0,3.39,0,6.29-4.8,6.44-5,.16-4.87-2.83-4.84-6.19C1234.69,106.87,1234.66,101.63,1234.66,96.39Z"/><path class="cls-2" d="M404.93,372.05a55.28,55.28,0,0,0,0-6c-1-9.2-.94-16.33,12.33-14.48,7.08,1,14.46,2.69,22.29.09,5-1.67,8.43,4.34,8.74,9.42.57,9.64.25,19.33.45,29,.07,3.66-1.48,4.86-5.06,4.8-3.88-.06-4.65-2.08-4.62-5.33.06-7.65.06-15.31-.06-23,0-2.25.52-5.45-2.71-5.78-3.76-.38-4.39,2.87-4.5,5.71-.21,6,.23,12.12-.37,18.11-.36,3.63,3.22,9.89-4.43,10.09-8.92.24-4.29-6.88-4.85-10.64-.81-5.52-.18-11.25-.34-16.89-.08-2.76-.16-6.57-3.75-6.35-3.4.2-3.32,4-3.36,6.81-.1,6.85-.07,13.7-.11,20.55,0,3.19.48,6.41-4.49,6.71-6,.36-5.1-3.56-5.12-7.1C404.91,382.52,404.93,377.29,404.93,372.05Z"/><path class="cls-1" d="M773.7,188.08v-4.85c0-15.13,0-15.53,14.09-16,6.56-.22,12.68,2.57,19.92.07,5.64-2,9,4.53,9.36,10.11.55,9.26.24,18.57.39,27.86,0,3.31-.79,5.23-4.69,5.2-3.68,0-5-1.5-5-5,.1-7.27.18-14.54-.07-21.81-.1-2.85,1.4-7.67-3.48-7.43-3.89.19-3.84,4.56-3.89,7.8q-.14,9.7-.06,19.39c0,3.84.2,7.27-5.41,7.08-5.35-.18-4.11-3.87-4.17-6.81-.14-6.86,0-13.73-.11-20.6,0-2.84-.1-6.62-3.43-6.82-3.63-.23-3.66,3.6-3.73,6.38-.14,6.06.18,12.14-.27,18.17-.27,3.71,2.8,9.78-5.1,9.58-7.14-.17-3.88-5.7-4.26-9C773.31,197,773.7,192.52,773.7,188.08Z"/><path class="cls-2" d="M1465.13,372.72a43.44,43.44,0,0,0,0-6c-1.37-9.85-.06-16.63,12.8-15.26,6.85.72,13.52,3.3,21.21.24,5.5-2.18,9.1,4.31,9.42,9.92.54,9.24.26,18.53.37,27.79,0,3.07-.29,5.38-4.37,5.49-4.49.12-5.39-2-5.32-5.89.15-7.66.07-15.32,0-23,0-2.33.09-5.43-3.19-5.41-2.79,0-3.9,2.64-4,5.2-.19,7.25-.19,14.5-.28,21.75,0,3.57.77,7.43-5.1,7.31-6.24-.12-4.33-4.55-4.45-7.7-.26-6.84-.11-13.69-.23-20.54,0-2.45-.43-5.62-3.15-5.79-3.82-.24-3.83,3.36-3.89,6.11q-.23,10.88-.13,21.75c0,3.58-.33,6.17-5.06,6.19-5.15,0-4.56-3.27-4.58-6.44C1465.11,383.2,1465.14,378,1465.13,372.72Z"/><path class="cls-5" d="M1004.18,95.67c0-2,0-4,0-6,.14-7.53-3.12-16,11.44-14.12,6.69.88,14.49,4.69,22.78-.2,4.46-2.63,8.67,4.76,9,10.25.59,9.24.28,18.54.48,27.81.08,3.58-1.29,5-5,4.9-3.91-.12-4.57-2.27-4.54-5.46.06-6.86.21-13.73-.1-20.57-.15-3.21,1.67-8.74-3.64-8.51-4.34.19-3.84,5.45-3.93,9-.17,6.45-.17,12.91-.09,19.36,0,3.62-.41,6.21-5.1,6.22-5.31,0-4.29-3.59-4.34-6.6-.1-6.05.17-12.11-.11-18.15-.17-3.65,1.67-9.6-3.84-9.65-4.31,0-3.35,5.65-3.49,9.08-.25,6.44-.23,12.91-.08,19.36.09,3.89-1,6-5.38,6s-4.1-2.81-4.1-5.66Q1004.18,104.15,1004.18,95.67Z"/><path class="cls-5" d="M1234.66,465q0-3,0-6.05c0-15.13,6.41-19.35,20.88-13.57,2,.8,2.93,2.36,6.06,1.09,11.41-4.63,15.9-1.52,16.63,10.94.45,7.64.17,15.32.13,23,0,3.08.78,6.55-4.39,6.66-5.9.14-5-3.8-5.07-7.34-.05-6.05.2-12.12-.11-18.15-.18-3.27,1.68-8.88-3.16-9-5.43-.07-4.14,5.81-4.42,9.54-.31,4,.54,8.2-.27,12.06-.91,4.35,4.17,12.07-4.38,12.46-9.31.43-3.91-7.65-4.69-11.76-.95-5.07-.24-10.45-.26-15.69,0-2.9-.22-6.64-3.43-6.83-3.4-.2-3.77,3.54-3.83,6.4q-.19,10.89-.22,21.78c0,3.38,0,6.34-4.81,6.49-5.17.17-4.63-3.13-4.65-6.33C1234.64,475.46,1234.66,470.22,1234.66,465Z"/><path class="cls-5" d="M1557.33,95.41c0-2,0-4,0-6,0-14.64,6.32-18.74,20.52-12.94,2.5,1,3.66,2.47,7.1.81,9.2-4.46,14.62-1.44,15.64,8.59.89,8.79.37,17.73.45,26.6,0,2.82.33,5.68-4,5.83s-5.61-1.69-5.53-5.72c.16-7.66.07-15.33-.06-23,0-2.29.35-5.46-2.79-5.82-3.74-.43-4.45,2.8-4.55,5.63-.25,7.25-.3,14.51-.31,21.77,0,3.81.21,7.31-5.38,7.14-5.41-.17-4-4-4.05-6.87-.19-7.66-.11-15.32-.21-23,0-2.13-.88-4.46-3-4.73-3-.37-3.93,2.26-4,4.71-.25,7.66-.39,15.32-.36,23,0,4-.3,7.18-5.65,6.88s-3.63-4.35-3.77-7.11C1557.14,105.91,1557.33,100.65,1557.33,95.41Z"/><path class="cls-5" d="M1511.23,187.86c0-2,0-4,0-6.05.14-7.53-3.12-16,11.44-14.12,6.7.88,14.49,4.69,22.78-.19,4.47-2.64,8.68,4.75,9,10.24.6,9.24.29,18.54.48,27.81.08,3.58-1.29,5-5,4.9-3.91-.12-4.57-2.27-4.54-5.46.06-6.86.22-13.73-.1-20.57-.14-3.21,1.67-8.73-3.64-8.51-4.34.19-3.84,5.45-3.93,9-.17,6.45-.16,12.91-.08,19.36,0,3.62-.41,6.21-5.1,6.22-5.32,0-4.3-3.59-4.35-6.6-.1-6.05.17-12.11-.11-18.15-.17-3.65,1.68-9.6-3.84-9.65-4.3,0-3.35,5.65-3.49,9.08-.25,6.45-.23,12.91-.08,19.36.09,3.89-1,6-5.38,6s-4.09-2.81-4.1-5.65C1511.23,199.16,1511.24,193.51,1511.23,187.86Z"/><path class="cls-5" d="M819.41,268.8l0-7.42c4.14-7.24,9.7,1.44,15.65-1.22,4.2-1.87,12.09.84,18.9-.61,5.93-1.27,8.75,5.12,9.1,10.62.55,8.85.33,17.74.4,26.62,0,2.82.36,5.69-4,5.84s-5.62-1.68-5.53-5.71c.16-7.67.07-15.34-.06-23,0-2.29.34-5.46-2.8-5.81-3.74-.42-4.45,2.81-4.54,5.65-.25,7.66-.38,15.33-.3,23,.05,3.93-1.07,6-5.43,5.91s-4-2.88-4.05-5.7c0-7.67,0-15.34-.09-23,0-2.5-.47-5.61-3.11-5.84-3.72-.34-4,3.19-4.07,6-.19,6.86-.08,13.73-.32,20.58-.11,3.28,1.48,7.65-4.45,8-7.29.38-4.7-5-4.86-8.4C819.48,285.74,819.54,277.26,819.41,268.8Z"/><path class="cls-3" d="M727.6,95.75c0-2,.08-4,0-6.06-.41-8.55-2-16.82,12.2-14.57,6.92,1.09,14.43,2.78,22.38.12,5.39-1.81,8.58,5.12,8.86,10.69.45,8.87.23,17.77.3,26.66,0,3.06-.44,5.46-4.46,5.59-4.75.14-5.12-2.74-5.11-6.27,0-7.27,0-14.55-.11-21.82,0-2.26.45-5.46-2.79-5.76C755,84,754.5,87.25,754.4,90.1c-.21,6.06.12,12.14-.35,18.17-.3,3.77,2.61,10.14-5.06,9.72-7.38-.4-3.89-6.59-4.26-10.27-.57-5.6-.1-11.3-.24-17-.07-2.76,0-6.54-3.75-6.37s-3.35,4-3.42,6.75c-.17,6.87-.14,13.74-.16,20.61,0,3.44-.23,6.44-5,6.42-5.1,0-4.47-3.53-4.52-6.66C727.55,106.26,727.61,101,727.6,95.75Z"/><path class="cls-6" d="M633,99.59c0,4.44,0,8.88,0,13.32,0,3.25-.89,5.36-4.79,5.23s-4.55-2.48-4.55-5.59c0-6.86.12-13.72-.14-20.57-.11-2.92,1.23-7.7-3.12-7.88-5-.21-4.36,4.88-4.52,8.25-.3,6.44-.16,12.9-.19,19.36,0,3.43-.25,6.48-5,6.43-5.18-.06-4.24-3.79-4.3-6.8-.14-7.26-.07-14.52-.16-21.78,0-2.51-.59-5.42-3.39-5.61-3-.2-3.65,2.76-3.73,5.21-.23,7.25-.31,14.51-.37,21.77,0,3.8,0,7.5-5.46,7.18-5.29-.3-3.74-4.35-3.84-7.18-.22-6.45-.07-12.91-.07-19.36,0-18.09,3.52-20.49,21.42-14.63,1.43.47,2.94,1.5,4.27,1.31,16.45-2.39,17.71-1.36,18,15.29C633,95.56,633,97.58,633,99.59Z"/><path class="cls-4" d="M358.84,95.71c0-2,0-4,0-6.06,0-7.93-2.92-17,11.9-14.25,7,1.33,14.91,3.66,23.18,0,4.27-1.91,7.88,4.92,8.17,10,.55,9.26.3,18.57.46,27.86.05,3.45-1.2,5.15-5,5-3.92-.14-4.56-2.41-4.55-5.55,0-7.27.1-14.55-.1-21.81-.07-2.58.88-6.61-3-6.8-4.42-.22-4.34,4-4.43,7.09-.22,6.86-.17,13.73-.19,20.6,0,3.4-.1,6.41-4.91,6.48-5.16.08-4.52-3.4-4.55-6.53-.08-7.27-.05-14.54-.12-21.81,0-2.48-.39-5.57-3.15-5.79-3.88-.31-3.93,3.29-4,6-.2,6.87-.14,13.74-.26,20.6-.06,3.55.71,7.63-5.09,7.46-6.18-.18-4.11-4.8-4.3-7.93C358.63,105.42,358.84,100.55,358.84,95.71Z"/><path class="cls-4" d="M589.32,465.28c0-2-.05-4,0-6,.25-8-3.59-18.18,12.25-15.26,6.62,1.22,14.11,3.73,22,0,4.5-2.11,8.48,4.25,8.83,9.3.69,9.65.45,19.36.58,29,0,2.78-.93,4.53-4.12,4.6-3.36.07-5.37-.94-5.36-4.71q.06-12.12-.13-24.23c0-2.36-.07-5.44-3.34-5.37-2.79.07-3.85,2.67-3.92,5.24-.19,7.27-.26,14.54-.33,21.81,0,3.71.36,7.47-5.31,7.28-5.28-.18-4.07-4-4.14-6.92-.17-7.27-.08-14.54-.16-21.81,0-2.54-.75-5.47-3.48-5.56s-3.56,2.89-3.62,5.4c-.16,7.27-.26,14.54-.26,21.81,0,3.89-.07,7.37-5.54,7.07-5.32-.3-3.78-4.26-3.91-7.13C589.17,475,589.32,470.13,589.32,465.28Z"/><path class="cls-6" d="M36.18,95.94c0-2-.07-4,0-6,.28-7.67-3.37-17.11,11.85-14.45,6.47,1.13,14.13,4.3,22.08-.11,4.22-2.33,8.58,4,9,9,.72,9.63.55,19.32.71,29,0,2.7-.79,4.63-4,4.74-3.44.12-5.3-1.17-5.3-4.81,0-7.67,0-15.33-.15-23-.07-2.64.45-6.55-3.53-6.42-3.37.11-3.92,3.62-4,6.5-.18,6.85-.24,13.71-.28,20.56,0,3.82,0,7.5-5.48,7.16-5.26-.33-3.7-4.38-3.82-7.23-.23-5.63.17-11.3-.16-16.93-.22-3.63,1.74-9.86-3.8-9.65-5,.18-3.37,6.4-3.6,10.14-.35,5.63-.09,11.29-.15,16.94,0,3.25.16,6.56-4.67,6.76-5.11.2-4.61-3.3-4.64-6.47C36.14,106.43,36.19,101.18,36.18,95.94Z"/><path class="cls-6" d="M1419.05,373.35c0-2,0-4,0-6.05.2-8-3.59-18.05,12.16-15.32,6.67,1.15,14.14,3.31,22.1,0,5.11-2.13,8.59,5,8.94,10.52.55,8.84.33,17.73.43,26.59,0,3-.36,5.53-4.4,5.61-4.82.1-4.94-3-5-6.42,0-7.66,0-15.32-.2-23,0-1.91-.07-4.35-2.67-4.73-3.12-.46-4.34,1.94-4.47,4.36-.39,7.24-.34,14.5-.64,21.75-.13,3.35,1.18,7.72-4.59,8-6.14.27-4.56-4.34-4.67-7.58-.23-7.25-.1-14.52-.23-21.77,0-2.07-.75-4.39-3-4.68-3.14-.39-3.93,2.29-4,4.71-.28,6.85-.16,13.71-.5,20.55-.18,3.6,1.73,9-5,8.7s-3.77-5.81-4.18-9.16C1418.67,381.47,1419.05,377.39,1419.05,373.35Z"/><path class="cls-3" d="M1326.85,95.58a58.3,58.3,0,0,0,0-6.06c-1-9.2-1-16.29,12.35-14.37,7.08,1,14.52,2.64,22.39,0,4.87-1.61,8.26,4.62,8.57,9.71.57,9.26.33,18.57.44,27.86,0,3.16-.67,5.42-4.62,5.42-3.77,0-4.93-1.86-4.92-5.21,0-7.27.08-14.55-.12-21.82-.08-2.56,1-6.6-3-6.79-4.47-.22-4.3,4-4.39,7.12-.2,6.46-.13,12.93-.16,19.39,0,3.72.31,7.52-5.33,7.3-5.19-.2-4.12-4-4.18-7-.15-6.46.06-12.93-.13-19.39-.09-3,.65-7.46-3.93-7.32-3.56.11-3.17,4.13-3.26,6.84-.18,5.65.19,11.34-.25,17-.3,3.78,2.59,9.94-5.08,9.76-6.87-.16-3.91-5.76-4.27-9.14C1326.49,104.5,1326.85,100,1326.85,95.58Z"/><path class="cls-4" d="M1373,188.58c0-2,.12-4.05,0-6.06-.63-8.88-1.6-16.87,12.35-15.07,6.92.9,14.24,3.59,22-.09,4-1.88,8.11,3.67,8.46,8.31.76,10,.63,20.14.84,30.22.06,2.85-1.11,4.41-4.22,4.48-3.48.08-5.27-1.17-5.24-4.84,0-7.67.06-15.35-.11-23-.06-2.65.53-6.58-3.48-6.43-3.34.13-3.88,3.63-3.93,6.55q-.2,10.29-.2,20.6c0,3.82.09,7.41-5.44,7.15-5.32-.25-3.92-4.16-4-7-.2-7.26-.08-14.54-.19-21.81,0-2.51-.74-5.41-3.58-5.38s-3.45,3-3.51,5.49c-.16,7.27-.28,14.54-.25,21.81,0,4-.31,7.31-5.67,6.92s-3.62-4.42-3.77-7.24C1372.77,198.28,1373,193.43,1373,188.58Z"/><path class="cls-4" d="M1188.57,372c0-1.62,0-3.24,0-4.85.16-8.06-3.56-17.89,12.12-15.38,6.62,1.06,14.09,4.05,22,0,4.38-2.24,8.55,4.1,8.92,9.16.71,9.65.42,19.36.64,29.05.09,3.72-1.7,4.88-5.2,4.74-4-.15-4.3-2.75-4.3-5.76,0-7.68,0-15.35-.14-23,0-2.32.07-5.4-3.19-5.48-2.85-.07-3.88,2.48-4.06,5-.21,3.22.5,6.7-.49,9.63-2.15,6.42,5.93,18.77-5,18.55-9.38-.18-2.3-12.48-4.26-19.07-.66-2.23-.08-4.82-.15-7.24-.08-2.84,0-6.6-3.43-6.81-3.65-.24-3.73,3.58-3.8,6.35-.18,7.27-.27,14.54-.2,21.81,0,3.82-1,6.13-5.39,6s-4.08-2.94-4.09-5.79C1188.56,383.34,1188.58,377.68,1188.57,372Z"/><path class="cls-3" d="M1050.28,373.11a58.28,58.28,0,0,0,0-6.06c-1.06-9.42-1.11-17.21,12.56-15.28,7.23,1,14.6,2.13,22.4,0,5-1.36,8.1,4.85,8.39,9.93.52,9.27.29,18.58.4,27.87,0,3.33-1,5.25-4.88,5.16s-4.67-2.28-4.67-5.47c0-7.68,0-15.36-.14-23,0-2.31.15-5.41-3.17-5.46-2.92-.05-3.93,2.55-4,5.09-.2,7.27-.28,14.54-.29,21.82,0,3.92-.19,7.39-5.61,7-5.24-.36-3.82-4.33-3.91-7.21-.23-7.27-.11-14.55-.25-21.82,0-2.05-.71-4.41-3-4.7-3.21-.41-3.88,2.32-3.95,4.74q-.33,11.5-.29,23c0,3.83-1,6.13-5.46,6-4.25-.15-4.07-3-4.09-5.87C1050.27,383.61,1050.29,378.36,1050.28,373.11Z"/><path class="cls-4" d="M912,96.35c0-2,.14-4,0-6.06-.75-9-1.35-16.78,12.39-15,7,.89,14.26,3.47,22-.1,4-1.84,8.09,3.71,8.44,8.35.75,10,.61,20.14.82,30.22.06,2.88-1.18,4.36-4.27,4.44-3.52.09-5.21-1.26-5.19-4.89,0-7.67.06-15.35-.11-23-.05-2.66.5-6.59-3.52-6.39-3.3.17-3.85,3.67-3.9,6.6-.11,6.87-.19,13.74-.18,20.6,0,3.86,0,7.39-5.5,7.1-5.33-.27-3.86-4.22-4-7.09-.21-7.26-.08-14.54-.19-21.81,0-2.5-.74-5.39-3.62-5.32s-3.41,3.05-3.47,5.52c-.16,7.27-.16,14.54-.29,21.81-.05,3.17.47,6.58-4.45,6.9-6.1.39-4.9-3.89-5-7.3C911.9,106,912,101.19,912,96.35Z"/><path class="cls-3" d="M358.84,464c0-1.61,0-3.23,0-4.85,0-16.6,4.06-19.44,20.68-14.15,2.15.69,3.5,2,6.43,1.05,12-3.78,15.95-.84,16.54,11.67.34,7.26.16,14.54.06,21.82,0,3.44,1,7.73-5,7.42s-4.41-4.7-4.51-8c-.2-6.86,0-13.74-.17-20.61,0-2.33,0-5.43-3.29-5.35-2.83.07-3.82,2.69-3.9,5.26-.17,6.46,0,12.94-.37,19.38-.22,3.5,2.2,8.94-4.43,9.21-8,.32-4.59-6-4.91-9.67-.54-6-.16-12.11-.25-18.17,0-2.46-.37-5.56-3.17-5.78-4-.3-3.85,3.39-3.93,6.08-.21,6.87-.21,13.74-.19,20.61,0,3.91-.17,7.4-5.6,7-5.22-.35-3.81-4.3-3.92-7.2C358.69,474.47,358.84,469.21,358.84,464Z"/><path class="cls-2" d="M1518.33,347.11c2.09-3.65-3.7-10.57,5.47-10.67,4.36,0,7.77,1.14,6,6-2.16,6.08,3.53,16.67-5.89,17.78C1515.62,361.15,1521.2,351.32,1518.33,347.11Z"/><path class="cls-2" d="M1535.31,347.28c2.2-3.61-3.77-10.52,5.27-10.8,4.11-.13,8,.61,6.28,5.73-2,6.16,3.32,16.67-5.73,18C1532.7,361.38,1538.14,351.49,1535.31,347.28Z"/><path class="cls-1" d="M734.57,163.34c2-4.49-3.41-11.23,5.67-11.29,4.49,0,7.64,1.47,5.85,6.08-2.33,6,3.67,16.64-5.83,17.65C731.8,176.68,738.29,166.59,734.57,163.34Z"/><path class="cls-1" d="M751.37,163.26c2.41-4.24-3.38-11.12,5.79-11.2,4.42,0,7.71,1.3,5.92,6-2.29,6,3.61,16.65-5.78,17.72C748.75,176.76,755.31,166.62,751.37,163.26Z"/><path class="cls-1" d="M1350.59,163.39c2.49-4.25-3.39-11.12,5.7-11.31,4.27-.09,7.83,1,6,5.88-2.23,6.07,3.52,16.64-5.67,17.83C1347.92,176.92,1354.63,166.67,1350.59,163.39Z"/><path class="cls-1" d="M1085.72,439.77c-3.23,3.69,2.48,13.72-5.47,12.56-9.19-1.34-3.89-11.7-5.49-17.95-1.28-5,1.83-6,6.17-5.72C1089.92,429.22,1084.47,435.57,1085.72,439.77Z"/><path class="cls-1" d="M1103.5,347.31c2.22-3.58-3.83-10.43,5.12-10.81,4-.17,8,.48,6.28,5.64-2.07,6.16,3.24,16.63-5.52,18C1101.16,361.44,1106.31,351.54,1103.5,347.31Z"/><path class="cls-1" d="M1131.79,347.47c-3.1,3.74,2.39,13.68-5.33,12.68-9.43-1.23-3.93-11.63-5.59-17.83-1.29-4.8,1.49-6.12,6-5.88C1135.88,336.92,1130.71,343.2,1131.79,347.47Z"/><path class="cls-1" d="M1161.36,346.9c-3.55,4.31,1.92,14.23-5.77,13.25-9.46-1.21-3.94-11.62-5.61-17.81-1.28-4.77,1.46-6.09,6-5.91C1165.25,336.81,1159.29,343.42,1161.36,346.9Z"/><path class="cls-1" d="M1166.41,347.72c2-4.49-3.41-11.23,5.68-11.28,4.49,0,7.63,1.46,5.84,6.07-2.33,6,3.67,16.64-5.83,17.65C1163.65,361.07,1170.14,351,1166.41,347.72Z"/><path class="cls-1" d="M1057.24,439.92c2-4.5-3.41-11.24,5.67-11.29,4.49,0,7.64,1.46,5.85,6.07-2.33,6,3.67,16.64-5.83,17.66C1054.47,453.26,1061,443.16,1057.24,439.92Z"/><path class="cls-3" d="M440.12,437.6c-3,3.95,3.44,14.8-5.12,14.59-9.21-.22-3.77-10.87-5.47-16.71-1.1-3.76-.11-6.89,5.25-6.86C440.91,428.67,441,432.17,440.12,437.6Z"/><path class="cls-3" d="M532.45,346.83c-3.3,3.72,3.27,14.37-5.85,13.18-8.36-1.09-3.43-11.34-4.93-17.38-1.13-4.54,1.27-6.42,6-6.14C535.38,337,532,342.38,532.45,346.83Z"/><path class="cls-3" d="M504.6,346.19c.38-4.58-2.05-9.93,5.57-9.74,5,.13,6.82,2.87,5.3,6.82C513.28,349,519,359.47,510,360,502.07,360.51,506.67,350.53,504.6,346.19Z"/><path class="cls-3" d="M486,347.75c-.25,2.78-.54,5.56-.71,8.35-.17,2.63-.84,4.64-4.05,4.66-2.89,0-4.47-1.32-4.72-4.14-.4-4.37-.72-8.75-1-13.12-.28-3.82-.32-7.05,5.21-7.07,6,0,6.41,3.25,5.73,7.75C486.26,345.36,486.16,346.56,486,347.75Z"/><path class="cls-3" d="M458.38,347.26c1.27-4.21-3.21-10.69,5.54-10.78,4.94-.05,7,2.58,5.46,6.64-2.2,5.78,3.6,16-5.38,17C455.93,361,460.92,351.32,458.38,347.26Z"/><path class="cls-3" d="M423.18,437.81c-3.22,3.88,3.68,14.88-5.45,14.37-8.85-.5-3.6-11.08-5.21-17-1.12-4.1.54-6.66,5.6-6.54C424.49,428.79,423.77,432.75,423.18,437.81Z"/><path class="cls-1" d="M1333.63,163.26c2.41-4.24-3.37-11.12,5.79-11.2,4.42,0,7.71,1.3,5.92,6-2.29,6,3.61,16.65-5.77,17.72C1331,176.76,1337.57,166.62,1333.63,163.26Z"/><path class="cls-6" d="M1407.9,347.76c-2.63,3.81,3,12.35-4.56,12.46-8,.11-4.44-8.61-5.28-13.38-.66-3.71-3.9-10.52,4.92-10.19S1406.62,343.6,1407.9,347.76Z"/><path class="cls-5" d="M209.53,346.88c-2.86,4,2.57,13.91-4.57,13.19-9.23-.92-4.16-11.56-5.93-17.77-1.41-4.95,1.63-6.13,6.07-5.79C213.27,337.13,208.36,343,209.53,346.88Z"/><path class="cls-5" d="M192.1,348.44c-.11,2-.07,4-.37,6-.37,2.47,1.13,5.9-3.4,6.36-4.85.49-5-2.76-5.3-6.05-.33-3.6-.65-7.2-1-10.8-.42-4.24-.78-7.9,5.66-7.56,5.64.3,5.42,3.35,4.85,7.24C192.31,345.23,192.24,346.84,192.1,348.44Z"/><path class="cls-4" d="M145.71,346c-2.13,3.19,3.93,13.85-3.85,14-9.15.14-4.1-10.57-5.8-16.33-1-3.26-1.2-7.25,4.7-7.19C146.41,336.52,147.83,339,145.71,346Z"/><path class="cls-4" d="M163.49,347.76c-3.18,3.58,3,13.59-5.48,12.3-8.23-1.26-3.48-11.34-5.07-17.35-1.16-4.38.87-6.59,5.75-6.2C167.56,337.2,162.21,343.5,163.49,347.76Z"/><path class="cls-4" d="M567.74,437.64c.19-4.45-1.78-9.11,5.09-9,4.85.08,7.1,2.26,5.49,6.51-2.2,5.82,3.66,16.48-4.87,17C564.62,452.76,570.51,441.93,567.74,437.64Z"/><path class="cls-4" d="M561.41,440.66c-2.89,3.72,2.72,13.1-5.4,11.66-8.51-1.5-3.53-11.33-5.18-17.3-1.16-4.23.61-6.79,5.62-6.31C566.19,429.64,559.48,436.62,561.41,440.66Z"/><path class="cls-5" d="M1206.2,440.69c-.13,2.41-.24,4.81-.39,7.22s.16,4.84-3.43,5.11c-3.77.28-4.89-1.65-5.12-4.93-.27-4-.71-8-1.13-12-.45-4.3-.66-7.85,5.73-7.5,5.69.32,5.31,3.47,4.78,7.3C1206.43,437.48,1206.34,439.09,1206.2,440.69Z"/><path class="cls-5" d="M1223.63,440.55c-2.91,3.58,2.89,13.14-4.91,11.76-8.57-1.52-4-11.85-5.62-18.19-1-4.12,1.14-5.63,5.29-5.45C1228.48,429.11,1221.78,436.34,1223.63,440.55Z"/><path class="cls-6" d="M1592.23,163.69c-2.68,3.63,3.24,12.29-4.74,12.14-7.81-.15-4-8.8-5.17-13.61-1.36-5.68-1.57-12.41,7.6-9.49C1595.3,154.44,1591.22,159.73,1592.23,163.69Z"/><path class="cls-6" d="M1575.31,163.46c-2.68,3.79,3.15,12.13-4.69,12.44s-4.53-8-5-12.33c-.45-3.93-4.87-11.51,4.89-11.25C1579.29,152.55,1573.93,159.35,1575.31,163.46Z"/><path class="cls-6" d="M1391,347.84c-3.15,3.51,3.16,13.72-5.55,12.1-7.43-1.38-3.33-11.6-4.81-17.77-1-4,1.14-5.82,5.3-5.6C1394.71,337.05,1389.74,343.46,1391,347.84Z"/></svg>